HIERARCHY
ROOT Hips
{
    OFFSET   0.000000   0.000000   0.000000
    CHANNELS 6 Xposition Yposition Zposition Zrotation Xrotation Yrotation
    JOINT Chest
    {
        OFFSET   0.000000   8.007230   0.000000
        CHANNELS 3 Zrotation Xrotation Yrotation
        JOINT Chest2
        {
            OFFSET   0.000000  22.077100   0.000000
            CHANNELS 3 Zrotation Xrotation Yrotation
            JOINT Neck
            {
                OFFSET   0.000000  23.254700   0.000000
                CHANNELS 3 Zrotation Xrotation Yrotation
                JOINT Head
                {
                    OFFSET   0.000010  14.370000   1.956610
                    CHANNELS 3 Zrotation Xrotation Yrotation
                    End Site
                    {
                        OFFSET   0.000000  19.566000   0.000000
                    }
                }
            }
            JOINT LeftCollar
            {
                OFFSET   3.911900  19.017000  -0.467063
                CHANNELS 3 Zrotation Xrotation Yrotation
                JOINT LeftShoulder
                {
                    OFFSET  10.383700   0.000000   0.000000
                    CHANNELS 3 Zrotation Xrotation Yrotation
                    JOINT LeftElbow
                    {
                        OFFSET  26.662100   0.001671   0.000522
                        CHANNELS 3 Zrotation Xrotation Yrotation
                        JOINT LeftWrist
                        {
                            OFFSET  28.869000   0.000037  -0.000114
                            CHANNELS 3 Zrotation Xrotation Yrotation
                            JOINT LeftFinger0
                            {
                                OFFSET   2.044650  -2.323450   3.252850
                                CHANNELS 3 Zrotation Xrotation Yrotation
                                JOINT LeftFinger01
                                {
                                    OFFSET   3.088140   0.000000   0.000000
                                    CHANNELS 3 Zrotation Xrotation Yrotation
                                    JOINT LeftFinger02
                                    {
                                        OFFSET   2.639460   0.000000   0.000000
                                        CHANNELS 3 Zrotation Xrotation Yrotation
                                        End Site
                                        {
                                            OFFSET   2.582190   0.000000   0.000000
                                        }
                                    }
                                }
                            }
                            JOINT LeftFinger1
                            {
                                OFFSET   8.364480   0.000000   3.252850
                                CHANNELS 3 Zrotation Xrotation Yrotation
                                JOINT LeftFinger11
                                {
                                    OFFSET   4.646930   0.000000   0.000000
                                    CHANNELS 3 Zrotation Xrotation Yrotation
                                    JOINT LeftFinger12
                                    {
                                        OFFSET   2.323470   0.000000   0.000000
                                        CHANNELS 3 Zrotation Xrotation Yrotation
                                        End Site
                                        {
                                            OFFSET   2.273050   0.000000   0.000000
                                        }
                                    }
                                }
                            }
                            JOINT LeftFinger2
                            {
                                OFFSET   8.364490   0.000016   1.078090
                                CHANNELS 3 Zrotation Xrotation Yrotation
                                JOINT LeftFinger21
                                {
                                    OFFSET   5.111620   0.000000   0.000000
                                    CHANNELS 3 Zrotation Xrotation Yrotation
                                    JOINT LeftFinger22
                                    {
                                        OFFSET   2.788150   0.000013   0.000000
                                        CHANNELS 3 Zrotation Xrotation Yrotation
                                        End Site
                                        {
                                            OFFSET   2.727660   0.000000   0.000000
                                        }
                                    }
                                }
                            }
                            JOINT LeftFinger3
                            {
                                OFFSET   7.899780   0.000016  -1.078090
                                CHANNELS 3 Zrotation Xrotation Yrotation
                                JOINT LeftFinger31
                                {
                                    OFFSET   4.646930   0.000000   0.000000
                                    CHANNELS 3 Zrotation Xrotation Yrotation
                                    JOINT LeftFinger32
                                    {
                                        OFFSET   2.323470   0.000000   0.000000
                                        CHANNELS 3 Zrotation Xrotation Yrotation
                                        End Site
                                        {
                                            OFFSET   2.273050   0.000000   0.000000
                                        }
                                    }
                                }
                            }
                            JOINT LeftFinger4
                            {
                                OFFSET   7.435080   0.000000  -3.252850
                                CHANNELS 3 Zrotation Xrotation Yrotation
                                JOINT LeftFinger41
                                {
                                    OFFSET   3.717550   0.000000   0.000000
                                    CHANNELS 3 Zrotation Xrotation Yrotation
                                    JOINT LeftFinger42
                                    {
                                        OFFSET   1.858760   0.000000   0.000000
                                        CHANNELS 3 Zrotation Xrotation Yrotation
                                        End Site
                                        {
                                            OFFSET   1.818440   0.000000   0.000000
                                        }
                                    }
                                }
                            }
                        }
                    }
                }
            }
            JOINT RightCollar
            {
                OFFSET  -3.911900  19.017000  -0.467064
                CHANNELS 3 Zrotation Xrotation Yrotation
                JOINT RightShoulder
                {
                    OFFSET -10.383700   0.000000   0.000000
                    CHANNELS 3 Zrotation Xrotation Yrotation
                    JOINT RightElbow
                    {
                        OFFSET -26.662100   0.001633   0.000260
                        CHANNELS 3 Zrotation Xrotation Yrotation
                        JOINT RightWrist
                        {
                            OFFSET -28.869000  -0.000045  -0.000080
                            CHANNELS 3 Zrotation Xrotation Yrotation
                            JOINT RightFinger0
                            {
                                OFFSET  -2.044660  -2.323490   3.252850
                                CHANNELS 3 Zrotation Xrotation Yrotation
                                JOINT RightFinger01
                                {
                                    OFFSET  -3.088140   0.000000   0.000000
                                    CHANNELS 3 Zrotation Xrotation Yrotation
                                    JOINT RightFinger02
                                    {
                                        OFFSET  -2.639450   0.000000   0.000000
                                        CHANNELS 3 Zrotation Xrotation Yrotation
                                        End Site
                                        {
                                            OFFSET  -2.582190   0.000000   0.000000
                                        }
                                    }
                                }
                            }
                            JOINT RightFinger1
                            {
                                OFFSET  -8.364480   0.000000   3.252850
                                CHANNELS 3 Zrotation Xrotation Yrotation
                                JOINT RightFinger11
                                {
                                    OFFSET  -4.646920   0.000000   0.000000
                                    CHANNELS 3 Zrotation Xrotation Yrotation
                                    JOINT RightFinger12
                                    {
                                        OFFSET  -2.323470   0.000000   0.000000
                                        CHANNELS 3 Zrotation Xrotation Yrotation
                                        End Site
                                        {
                                            OFFSET  -2.273050   0.000000   0.000000
                                        }
                                    }
                                }
                            }
                            JOINT RightFinger2
                            {
                                OFFSET  -8.364480   0.000000   1.078090
                                CHANNELS 3 Zrotation Xrotation Yrotation
                                JOINT RightFinger21
                                {
                                    OFFSET  -5.111610   0.000000   0.000000
                                    CHANNELS 3 Zrotation Xrotation Yrotation
                                    JOINT RightFinger22
                                    {
                                        OFFSET  -2.788160   0.000000   0.000000
                                        CHANNELS 3 Zrotation Xrotation Yrotation
                                        End Site
                                        {
                                            OFFSET  -2.727660   0.000000   0.000000
                                        }
                                    }
                                }
                            }
                            JOINT RightFinger3
                            {
                                OFFSET  -7.899780   0.000000  -1.078090
                                CHANNELS 3 Zrotation Xrotation Yrotation
                                JOINT RightFinger31
                                {
                                    OFFSET  -4.646930   0.000000   0.000000
                                    CHANNELS 3 Zrotation Xrotation Yrotation
                                    JOINT RightFinger32
                                    {
                                        OFFSET  -2.323470   0.000000   0.000000
                                        CHANNELS 3 Zrotation Xrotation Yrotation
                                        End Site
                                        {
                                            OFFSET  -2.273050   0.000000   0.000000
                                        }
                                    }
                                }
                            }
                            JOINT RightFinger4
                            {
                                OFFSET  -7.435090   0.000000  -3.252850
                                CHANNELS 3 Zrotation Xrotation Yrotation
                                JOINT RightFinger41
                                {
                                    OFFSET  -3.717550   0.000000   0.000000
                                    CHANNELS 3 Zrotation Xrotation Yrotation
                                    JOINT RightFinger42
                                    {
                                        OFFSET  -1.858760   0.000000   0.000000
                                        CHANNELS 3 Zrotation Xrotation Yrotation
                                        End Site
                                        {
                                            OFFSET  -1.818440   0.000000   0.000000
                                        }
                                    }
                                }
                            }
                        }
                    }
                }
            }
        }
    }
    JOINT LeftHip
    {
        OFFSET   9.782990   0.000000   0.000000
        CHANNELS 3 Zrotation Xrotation Yrotation
        JOINT LeftKnee
        {
            OFFSET  -0.000063 -41.789100   0.001657
            CHANNELS 3 Zrotation Xrotation Yrotation
            JOINT LeftAnkle
            {
                OFFSET   0.000078 -41.133200  -0.000113
                CHANNELS 3 Zrotation Xrotation Yrotation
                JOINT LeftToe
                {
                    OFFSET   0.000000  -6.358970  14.674500
                    CHANNELS 3 Zrotation Xrotation Yrotation
                    End Site
                    {
                        OFFSET   0.000000   0.000000   3.913200
                    }
                }
            }
        }
    }
    JOINT RightHip
    {
        OFFSET  -9.782990   0.000000   0.000000
        CHANNELS 3 Zrotation Xrotation Yrotation
        JOINT RightKnee
        {
            OFFSET   0.000053 -41.789200   0.000277
            CHANNELS 3 Zrotation Xrotation Yrotation
            JOINT RightAnkle
            {
                OFFSET   0.000030 -41.133200  -0.000150
                CHANNELS 3 Zrotation Xrotation Yrotation
                JOINT RightToe
                {
                    OFFSET   0.000000  -6.358960  14.674500
                    CHANNELS 3 Zrotation Xrotation Yrotation
                    End Site
                    {
                        OFFSET   0.000000   0.000000   3.913200
                    }
                }
            }
        }
    }
}
MOTION
Frames: 4
Frame Time:   0.016667
  0.010087  89.579000  -1.442700  -2.014990 -18.310400   2.232490   2.449760  10.294100   2.148890   4.613450  20.665900   3.938560   0.239531  -1.986530   0.007818   0.394511  -4.028400  12.628800  -5.816190  -6.137280  -2.648220 -52.250200   7.380000 -60.576900  21.379900 -25.510900 -70.518900  18.258100 -40.071900  15.858900  43.772900  28.838800 -53.833200 -21.453100  -0.001250   0.000457  -5.726530  -0.003239  -0.002961 -13.063100  -0.687164   2.957890 -10.702000   0.008199  -0.003119  -7.491480  -0.008357  -0.001392 -22.606900  -4.039530   9.603370 -22.946300   0.002934   0.002878 -15.282300   0.001837  -0.008156 -21.424100  -3.838580   9.685160 -21.749300   0.006308   0.001761 -14.485000   0.000128  -0.001499 -20.314200  -3.649160   9.757190 -30.938400   0.002836   0.002811 -20.605000   0.003571   0.002693   6.450410  -4.532410  13.031100  32.573800  -3.266620  59.744500 -43.371100 -28.048500  62.084200 -39.867300  -8.971870  26.818600 -44.440600  32.367000  70.530100  15.917700  -0.004636  -0.002522   2.958820  -0.002399  -0.000853  24.348300   4.528610   9.896320  20.242100   0.003578  -0.002972  14.169500   0.002000  -0.001757   6.594550   1.261170  10.794100   6.713350  -0.001593  -0.004183   4.471090   0.003339  -0.004197  14.946500   0.544070   2.030940  14.950800   0.001411  -0.000863   9.957280   0.002033  -0.001198  18.821400   0.682740   1.998410  28.246100   0.003311  -0.004378  18.811900   0.001919  -0.001378   3.002550  19.085900   4.318610   1.396560   0.078906   4.776890  -1.501930  -2.092860   0.755215  -0.000000   0.000000  -0.000000   4.540000  18.735600   1.660510  -0.493470   3.192430  -9.126930  -1.357210  -5.285890  -3.270340   0.000000   0.000000   0.000000
 -0.003982  89.578500  -1.432290  -2.043250 -18.283500   2.119470   2.451260  10.272400   2.127040   4.621140  20.621700   3.894090   0.260665  -2.058480   0.007714   0.429566  -4.174090  12.428000  -5.820730  -6.018910  -2.636080 -52.805600   6.902100 -60.487300  21.557100 -25.810000 -71.114800  18.165100 -38.876200  15.304200  43.726300  28.863800 -53.883000 -21.575900  -0.001246   0.000451  -5.787940  -0.003311  -0.002947 -13.049800  -0.691185   2.982110 -10.691200   0.008207  -0.003224  -7.483890  -0.008359  -0.001445 -22.572900  -4.036480   9.612140 -22.912300   0.002870   0.002842 -15.259600   0.001881  -0.008310 -21.342100  -3.827410   9.696800 -21.666800   0.006405   0.001745 -14.430100   0.000156  -0.001595 -20.273200  -3.644690   9.766040 -30.876800   0.002902   0.002759 -20.564000   0.003571   0.002656   6.455930  -4.444840  12.969200  32.705400  -3.600400  59.493900 -43.685900 -28.688800  61.980300 -39.889800  -9.200010  26.708900 -44.499700  32.475500  70.661300  15.740600  -0.004629  -0.002572   2.870280  -0.002402  -0.000851  24.412000   4.513610   9.836150  20.291000   0.003573  -0.002963  14.203700   0.002007  -0.001725   5.814540   1.105820  10.751000   5.918330  -0.000542  -0.004236   3.941610   0.003434  -0.004211  14.988000   0.470021   1.750100  14.993700   0.001339  -0.000824   9.985820   0.001964  -0.001146  18.862000   0.589320   1.723350  28.304300   0.003218  -0.004403  18.850600   0.001868  -0.001371   3.000080  19.085600   4.325610   1.396150   0.066329   4.831570  -1.504830  -2.096530   0.803061  -0.000000   0.000000   0.000000   4.526750  18.720000   1.671800  -0.480624   3.166790  -9.053550  -1.357340  -5.271220  -3.238140  -0.000000   0.000000  -0.000000
 -0.018161  89.578800  -1.419570  -2.074200 -18.250000   2.007690   2.453280  10.244000   2.110320   4.628080  20.564400   3.860350   0.281653  -2.122590   0.007598   0.464002  -4.303730  12.201300  -5.821880  -5.908740  -2.624390 -53.366000   6.400700 -60.389100  21.692900 -25.962600 -71.744300  17.908900 -37.646500  14.682400  43.664000  28.824500 -53.821600 -21.675200  -0.001258   0.000424  -5.837630  -0.003394  -0.002940 -12.997700  -0.710733   3.080630 -10.649100   0.008213  -0.003331  -7.454410  -0.008364  -0.001499 -22.517400  -4.031350   9.626680 -22.856800   0.002805   0.002802 -15.222600   0.001915  -0.008464 -21.256400  -3.816940   9.713030 -21.580600   0.006496   0.001726 -14.372700   0.000192  -0.001686 -20.230900  -3.641360   9.779340 -30.813500   0.002965   0.002709 -20.521800   0.003576   0.002620   6.462960  -4.375870  12.898200  32.953800  -3.938950  59.234800 -43.963200 -29.191300  61.916900 -40.049400  -9.277830  26.738500 -44.407200  32.491700  70.729200  15.707100  -0.004658  -0.002616   2.853530  -0.002412  -0.000862  24.432900   4.472160   9.735690  20.303600   0.003578  -0.002947  14.212500   0.002007  -0.001693   4.966340   0.937858  10.659300   5.052500  -0.000115  -0.004278   3.364970   0.003525  -0.004240  15.111200   0.404334   1.491960  15.117200   0.001273  -0.000789  10.068100   0.001903  -0.001099  18.696600   0.491131   1.441430  28.051800   0.003133  -0.004420  18.682400   0.001805  -0.001344   3.001850  19.091100   4.335710   1.395770   0.035060   4.879800  -1.507420  -2.098220   0.852018  -0.000000   0.000000  -0.000000   4.517280  18.699900   1.683440  -0.471423   3.138380  -8.994010  -1.357910  -5.255020  -3.195960  -0.000000   0.000000   0.000000
 -0.031957  89.579400  -1.404720  -2.104490 -18.218300   1.900410   2.456250  10.213000   2.096010   4.638390  20.501900   3.831240   0.293201  -2.177540   0.007482   0.483480  -4.414860  11.960300  -5.819590  -5.798080  -2.615440 -53.856300   5.910980 -60.301200  21.791400 -26.071800 -72.327000  17.601400 -36.459500  14.076900  43.541500  28.745000 -53.672600 -21.794200  -0.001270   0.000404  -5.897150  -0.003478  -0.002936 -12.922000  -0.741624   3.234250 -10.588500   0.008216  -0.003439  -7.411940  -0.008367  -0.001551 -22.441200  -4.024290   9.646500 -22.780600   0.002743   0.002763 -15.171800   0.001945  -0.008616 -21.164500  -3.806830   9.733590 -21.488400   0.006587   0.001707 -14.311300   0.000228  -0.001778 -20.183200  -3.638480   9.796930 -30.742300   0.003030   0.002658 -20.474400   0.003581   0.002585   6.462600  -4.302830  12.823600  33.282700  -4.313800  58.990300 -44.167600 -29.562600  61.894800 -40.229100  -9.315460  26.764700 -44.331700  32.458100  70.776300  15.702300  -0.004688  -0.002659   2.851140  -0.002424  -0.000877  24.463800   4.400690   9.570170  20.315700   0.003583  -0.002932  14.221000   0.002007  -0.001663   4.225020   0.787053  10.492900   4.295010   0.000177  -0.004318   2.860480   0.003615  -0.004271  15.345600   0.344558   1.252080  15.348300   0.001210  -0.000756  10.222000   0.001845  -0.001055  18.530300   0.392591   1.158370  27.799300   0.003051  -0.004435  18.514300   0.001739  -0.001317   3.004740  19.096700   4.342420   1.395560   0.012561   4.927120  -1.510790  -2.101330   0.898333  -0.000000   0.000000  -0.000000   4.511110  18.682300   1.694770  -0.464934   3.110700  -8.946000  -1.359050  -5.240570  -3.147870   0.000000   0.000000   0.000000
